<svg xmlns="http://www.w3.org/2000/svg" width="20" height="20" rol="img" alt="search" aria-label="search" viewBox="0 0 20 20">
    <path fill="#1D7B8A" fill-rule="evenodd" d="M19.344 16.22l-4.62-4.58a7.674 7.674 0 0 0 1.035-3.849C15.759 3.488 12.23 0 7.879 0 3.528 0 0 3.488 0 7.791c0 4.303 3.528 7.792 7.88 7.792a7.913 7.913 0 0 0 3.708-.918l-.07.07 4.658 4.616c.437.433 1.01.649 1.584.649.573 0 1.147-.216 1.584-.649a2.197 2.197 0 0 0 0-3.132zM7.879 13.28c-3.065 0-5.55-2.458-5.55-5.488 0-3.032 2.485-5.489 5.55-5.489 3.066 0 5.55 2.457 5.55 5.489 0 3.03-2.484 5.488-5.55 5.488z"/>
</svg>
